<?xml version="1.0" encoding="UTF-8" standalone="no"?>
<svg
   width="225"
   height="64"
   viewBox="0 0 225 64"
   fill="none"
   version="1.1"
   id="svg50"
   xml:space="preserve"
   xmlns="http://www.w3.org/2000/svg"
   xmlns:svg="http://www.w3.org/2000/svg"><defs
   id="defs454" />
   <rect
   style="fill:#1e2531;stroke-width:1.84966;stroke-linejoin:bevel"
   id="rect293"
   width="225"
   height="64"
   x="0"
   y="0" />
    <g
   aria-label="Ton Vault"
   id="text4923"
   style="font-weight:500;font-size:29.6812px;line-height:0;font-family:'Helvetica Neue';-inkscape-font-specification:'Helvetica Neue Medium';letter-spacing:1.3913px;opacity:1;fill:#ffffff;stroke-width:1.85507;stroke-linejoin:bevel"><path
     d="m 72.772263,21.399966 h 17.155733 v 3.205569 h -6.737632 v 17.986807 h -3.71015 V 24.605535 h -6.707951 z"
     id="path573" /><path
     d="m 97.047722,43.007879 q -1.840234,0 -3.294613,-0.593624 -1.424698,-0.623305 -2.433859,-1.691828 -0.979479,-1.068523 -1.513741,-2.552583 -0.50458,-1.48406 -0.50458,-3.264932 0,-1.751191 0.50458,-3.235251 0.534262,-1.48406 1.513741,-2.552583 1.009161,-1.068524 2.433859,-1.662148 1.454379,-0.623305 3.294613,-0.623305 1.840234,0 3.264928,0.623305 1.45438,0.593624 2.43386,1.662148 1.00916,1.068523 1.51374,2.552583 0.53427,1.48406 0.53427,3.235251 0,1.780872 -0.53427,3.264932 -0.50458,1.48406 -1.51374,2.552583 -0.97948,1.068523 -2.43386,1.691828 -1.424694,0.593624 -3.264928,0.593624 z m 0,-2.671308 q 1.127886,0 1.958959,-0.474899 0.831074,-0.474899 1.365339,-1.24661 0.53426,-0.771712 0.77171,-1.72151 0.26713,-0.97948 0.26713,-1.98864 0,-0.97948 -0.26713,-1.95896 -0.23745,-0.979479 -0.77171,-1.721509 -0.534265,-0.771711 -1.365339,-1.246611 -0.831073,-0.474899 -1.958959,-0.474899 -1.127886,0 -1.958959,0.474899 -0.831074,0.4749 -1.365335,1.246611 -0.534262,0.74203 -0.801393,1.721509 -0.237449,0.97948 -0.237449,1.95896 0,1.00916 0.237449,1.98864 0.267131,0.949798 0.801393,1.72151 0.534261,0.771711 1.365335,1.24661 0.831073,0.474899 1.958959,0.474899 z"
     id="path575" /><path
     d="m 109.00549,27.247162 h 3.20556 v 2.255771 l 0.0594,0.05936 q 0.77171,-1.276292 2.01832,-1.988641 1.24661,-0.74203 2.76035,-0.74203 2.5229,0 3.97728,1.305973 1.45438,1.305973 1.45438,3.917918 v 10.536826 h -3.38366 v -9.64639 q -0.0594,-1.810553 -0.77171,-2.611945 -0.71235,-0.831074 -2.22609,-0.831074 -0.86075,0 -1.54342,0.326493 -0.68267,0.296812 -1.15757,0.860755 -0.4749,0.534262 -0.74203,1.276292 -0.26713,0.74203 -0.26713,1.573103 v 9.052766 h -3.38365 z"
     id="path577" /><path
     d="m 135.14717,21.399966 h 3.85855 l 5.31294,16.769878 h 0.0594 l 5.43166,-16.769878 h 3.76951 l -7.24221,21.192376 h -4.12569 z"
     id="path579" /><path
     d="m 167.82238,39.179004 q 0,0.623306 0.14841,0.890436 0.17809,0.267131 0.65299,0.267131 0.1484,0 0.35617,0 0.20777,0 0.4749,-0.05936 v 2.344815 q -0.17809,0.05936 -0.4749,0.118724 -0.26713,0.08904 -0.56394,0.148406 -0.29681,0.05936 -0.59363,0.08904 -0.29681,0.02968 -0.50458,0.02968 -1.03884,0 -1.72151,-0.415537 -0.68266,-0.415536 -0.89043,-1.454378 -1.00916,0.979479 -2.49322,1.424697 -1.45438,0.445218 -2.81972,0.445218 -1.03884,0 -1.98864,-0.296812 -0.9498,-0.267131 -1.69183,-0.801392 -0.71234,-0.563943 -1.15756,-1.395017 -0.41554,-0.860754 -0.41554,-1.98864 0,-1.424698 0.50458,-2.315134 0.53426,-0.890436 1.36534,-1.395016 0.86075,-0.50458 1.89959,-0.712349 1.06853,-0.237449 2.13705,-0.356174 0.92012,-0.178087 1.75119,-0.23745 0.83107,-0.08904 1.45438,-0.267131 0.65299,-0.178087 1.00916,-0.534261 0.38586,-0.385856 0.38586,-1.127886 0,-0.652986 -0.3265,-1.068523 -0.29681,-0.415537 -0.77171,-0.623305 -0.44522,-0.23745 -1.00916,-0.296812 -0.56394,-0.08904 -1.06852,-0.08904 -1.4247,0 -2.34482,0.593624 -0.92011,0.593624 -1.03884,1.840235 h -3.38366 q 0.089,-1.48406 0.71235,-2.46354 0.62331,-0.97948 1.57311,-1.573104 0.97948,-0.593624 2.1964,-0.831073 1.21693,-0.23745 2.49323,-0.23745 1.12788,0 2.22609,0.23745 1.0982,0.237449 1.95895,0.771711 0.89044,0.534262 1.4247,1.395016 0.53426,0.831074 0.53426,2.048003 z m -3.38365,-4.274092 q -0.77171,0.50458 -1.8996,0.623305 -1.12789,0.08904 -2.25577,0.296812 -0.53426,0.08904 -1.03884,0.267131 -0.50458,0.148406 -0.89044,0.445218 -0.38585,0.26713 -0.6233,0.74203 -0.20777,0.445218 -0.20777,1.098204 0,0.563943 0.32649,0.949798 0.32649,0.385856 0.77171,0.623306 0.4749,0.207768 1.00916,0.296812 0.56395,0.08904 1.00916,0.08904 0.56395,0 1.21693,-0.148406 0.65299,-0.148406 1.21693,-0.50458 0.59363,-0.356175 0.97948,-0.890436 0.38586,-0.563943 0.38586,-1.365335 z"
     id="path581" /><path
     d="m 186.33973,42.592342 h -3.32429 v -2.137046 h -0.0594 q -0.62331,1.157567 -1.86992,1.869916 -1.21693,0.682667 -2.49322,0.682667 -3.02748,0 -4.39282,-1.48406 -1.33565,-1.513741 -1.33565,-4.541223 v -9.735434 h 3.38365 v 9.40894 q 0,2.018322 0.77172,2.849396 0.77171,0.831073 2.16672,0.831073 1.06853,0 1.78087,-0.326493 0.71235,-0.326493 1.15757,-0.860755 0.44522,-0.563943 0.62331,-1.335654 0.20777,-0.771711 0.20777,-1.662147 v -8.90436 h 3.38365 z"
     id="path583" /><path
     d="m 191.3818,21.399966 h 3.38366 v 21.192376 h -3.38366 z"
     id="path585" /><path
     d="m 198.29379,27.247162 h 2.55258 v -4.600586 h 3.38366 v 4.600586 h 3.05716 v 2.522902 h -3.05716 v 8.192011 q 0,0.534262 0.0297,0.920117 0.0594,0.385856 0.20776,0.652987 0.17809,0.267131 0.50459,0.415537 0.32649,0.118724 0.89043,0.118724 0.35618,0 0.71235,0 0.35617,-0.02968 0.71235,-0.118724 v 2.611945 q -0.56394,0.05936 -1.09821,0.118725 -0.53426,0.05936 -1.0982,0.05936 -1.33565,0 -2.16673,-0.237449 -0.80139,-0.267131 -1.27629,-0.74203 -0.44522,-0.504581 -0.6233,-1.246611 -0.14841,-0.74203 -0.17809,-1.691828 v -9.052766 h -2.55258 z"
     id="path587" /></g>
   <path
   style="fill:#ffffff;fill-opacity:1;stroke-width:0.0270534"
   d="m 36.139715,50.00139 0.182287,-0.05497 0.1759,-0.09648 0.175878,-0.09637 0.214106,-0.219 0.214107,-0.219025 6.124901,-10.537512 6.124896,-10.537514 0.65922,-1.136265 0.6592,-1.136243 -0.0386,-1.59619 -0.03865,-1.596202 -0.0086,-0.100983 -0.0086,-0.10073 -1.493924,0.804226 -1.493926,0.804255 -5.983135,10.288369 -5.970945,10.260895 0.0042,-0.0082 3.18e-4,0.0042 -6.037561,-10.226511 -6.004302,-10.238789 -1.497522,-0.802391 -1.497487,-0.80241 -0.01181,0.01337 -0.01133,0.01337 -0.03358,1.685217 -0.03363,1.68523 6.74915,11.511448 6.749156,11.51145 0.110791,0.172045 0.110817,0.17198 0.153553,0.152419 0.153531,0.152445 0.152421,0.09121 0.152397,0.09121 0.178665,0.06485 0.178664,0.0648 0.139098,0.0252 0.139098,0.0252 0.237096,-0.01745 0.237136,-0.0177 z m 0.418949,-9.862812 0.886004,-1.4503 v -8.233936 -8.233944 h 4.92541 4.925416 l 1.445788,-0.885637 1.445778,-0.885663 v -0.01835 -0.01793 L 48.742812,19.533319 47.298546,18.649 H 35.503326 23.708105 l -1.449982,0.88601 -1.449987,0.886015 4.26e-4,0.01541 4.02e-4,0.01541 1.450587,0.886027 1.450611,0.886011 h 5.081692 5.08168 v 8.233924 8.233931 l 0.886039,1.450324 0.886004,1.450323 h 0.01655 -0.0061 l 0.904285,-1.450413 z"
   id="path486-2" />
</svg>
