<?xml version="1.0" encoding="UTF-8" standalone="no"?>
<svg
   width="128"
   height="128"
   viewBox="0 0 32 32"
   version="1.1"
   id="svg348"
   xml:space="preserve"
   xmlns="http://www.w3.org/2000/svg"
   xmlns:svg="http://www.w3.org/2000/svg">
   <circle
   style="fill:#1e2531;fill-opacity:1;stroke:none;stroke-width:1.26531;stroke-linecap:butt;stroke-linejoin:bevel;stroke-dasharray:none;stroke-opacity:1"
   id="path2522"
   cx="16"
   cy="16"
   r="16" />
   <path
   style="fill:#ffffff;fill-opacity:1;stroke-width:0.0113568"
   d="m 16.22197,23.673409 0.07654,-0.02319 0.07383,-0.04041 0.07383,-0.04037 0.08989,-0.09201 0.08989,-0.09201 2.57116,-4.423472 2.571151,-4.423473 0.276732,-0.476985 0.276727,-0.476976 -0.01622,-0.670055 -0.01626,-0.670062 -0.0038,-0.0424 -0.0038,-0.04229 -0.627135,0.337597 -0.627131,0.337613 -2.511646,4.318888 -2.506526,4.307356 0.0018,-0.0036 1.34e-4,0.0019 -2.534489,-4.292922 -2.520533,-4.29807 -0.628634,-0.336831 -0.6286287,-0.336842 -0.00493,0.0059 -0.00473,0.0059 -0.014101,0.707422 -0.014106,0.70742 2.8332047,4.832316 2.833208,4.832318 0.04646,0.07214 0.04647,0.07211 0.06452,0.06402 0.06451,0.06403 0.06402,0.03836 0.06401,0.03835 0.07506,0.02727 0.07506,0.02724 0.0584,0.01058 0.05841,0.01058 0.09952,-0.0077 0.09955,-0.0078 z m 0.17587,-4.140249 0.371935,-0.608812 v -3.456465 -3.456479 h 2.067622 2.067629 l 0.606922,-0.371772 0.60692,-0.371788 v -0.0081 -0.0079 L 21.512593,10.88322 20.906308,10.512 H 15.954819 11.00334 l -0.608688,0.371931 -0.6086825,0.371935 1.78e-4,0.0068 1.693e-4,0.0068 0.6089362,0.371942 0.608944,0.371933 h 2.133236 2.133224 v 3.45647 3.456464 l 0.37195,0.608822 0.371932,0.608822 h 0.0073 -0.0027 l 0.379601,-0.608884 z"
   id="path486" />
</svg>
