<?xml version="1.0" encoding="UTF-8" standalone="no"?>
<svg
   width="128"
   height="128"
   viewBox="0 0 32 32"
   version="1.1"
   id="svg348"
   xml:space="preserve"
   xmlns="http://www.w3.org/2000/svg"
   xmlns:svg="http://www.w3.org/2000/svg">
   <circle
   style="fill:#1e2531;fill-opacity:1;stroke:none;stroke-width:1.26531;stroke-linecap:butt;stroke-linejoin:bevel;stroke-dasharray:none;stroke-opacity:1"
   id="path2522"
   cx="16"
   cy="16"
   r="16" />
   <path
   style="opacity:1;fill:#ffffff;fill-opacity:1;stroke-width:0.0136282"
   d="m 16.261866,25.087439 0.09185,-0.02783 0.0886,-0.04849 0.0886,-0.04844 0.107868,-0.110412 0.107868,-0.110412 3.085392,-5.308166 3.085381,-5.308167 0.332078,-0.572382 0.332072,-0.572371 -0.01946,-0.804066 -0.01951,-0.804074 -0.0046,-0.05088 -0.0046,-0.05075 -0.752562,0.405117 -0.752557,0.405135 -3.013975,5.182665 -3.007831,5.168827 0.0022,-0.0043 1.61e-4,0.0023 -3.041386,-5.151506 -3.02464,-5.157683 -0.75436,-0.404197 -0.754355,-0.404211 -0.0059,0.0071 -0.0056,0.0071 -0.01692,0.848906 -0.01693,0.848904 3.399846,5.798779 3.399849,5.798781 0.05575,0.08657 0.05576,0.08653 0.07742,0.07682 0.07741,0.07684 0.07682,0.04603 0.07681,0.04602 0.09007,0.03272 0.09007,0.03269 0.07008,0.0127 0.07009,0.0127 0.119424,-0.0092 0.11946,-0.0094 z m 0.211044,-4.968298 0.446322,-0.730574 v -4.147758 -4.147775 h 2.481146 2.481155 l 0.728306,-0.446126 0.728304,-0.446145 v -0.0097 -0.0095 L 22.610613,9.739214 21.883071,9.29375 H 15.941285 9.999511 l -0.730426,0.4463172 -0.730419,0.4463218 2.13e-4,0.0082 2.04e-4,0.0082 0.730723,0.44633 0.730733,0.44632 h 2.559883 2.559869 v 4.147764 4.147756 l 0.446339,0.730586 0.446319,0.730587 h 0.0088 -0.0032 l 0.455521,-0.730661 z"
   id="path486-0" />
</svg>
